<svg width="49" height="62" viewBox="0 0 49 62" fill="none" xmlns="http://www.w3.org/2000/svg">
<path d="M24.5 60.5C24.5 60.5 48 48.7 48 31V10.35L24.5 1.5L1 10.35V31C1 48.7 24.5 60.5 24.5 60.5Z" stroke="#F1D412" stroke-width="2" stroke-linecap="round" stroke-linejoin="round"/>
<path d="M29.5438 39.28C29.7358 38.608 30.2158 38.272 30.9838 38.272H32.9638C33.2758 38.272 33.5158 38.392 33.6838 38.632C33.8758 38.872 33.9718 39.136 33.9718 39.424C33.9718 39.664 33.9238 39.868 33.8278 40.036C33.3958 40.996 32.7358 41.848 31.8478 42.592C30.9598 43.312 29.9518 43.876 28.8238 44.284C27.6958 44.668 26.5558 44.86 25.4038 44.86C23.3158 44.86 21.4198 44.32 19.7158 43.24C18.0118 42.136 16.6558 40.6 15.6478 38.632C14.6638 36.664 14.1718 34.372 14.1718 31.756C14.1718 29.764 14.4478 27.868 14.9998 26.068C15.5758 24.268 16.3678 22.672 17.3758 21.28C18.3838 19.888 19.5358 18.796 20.8318 18.004C22.1518 17.188 23.5438 16.78 25.0078 16.78C25.9918 16.78 26.9998 16.996 28.0318 17.428C29.0638 17.836 30.0358 18.4 30.9478 19.12C31.8838 19.816 32.6878 20.608 33.3598 21.496C34.0558 22.384 34.5358 23.296 34.7998 24.232C34.8238 24.28 34.8358 24.34 34.8358 24.412C34.8358 24.484 34.8358 24.544 34.8358 24.592C34.8358 24.904 34.7398 25.18 34.5478 25.42C34.3558 25.636 34.0918 25.744 33.7558 25.744H31.5238C30.8518 25.744 30.4198 25.36 30.2278 24.592C30.0118 23.704 29.6518 22.828 29.1478 21.964C28.6438 21.1 28.0438 20.38 27.3478 19.804C26.6518 19.228 25.8718 18.94 25.0078 18.94C24.0478 18.94 23.1718 19.324 22.3798 20.092C21.6118 20.836 20.9638 21.844 20.4358 23.116C19.9078 24.364 19.4998 25.744 19.2118 27.256C18.9238 28.744 18.7798 30.244 18.7798 31.756C18.7798 33.316 18.9718 34.768 19.3558 36.112C19.7398 37.432 20.2558 38.584 20.9038 39.568C21.5518 40.552 22.2598 41.32 23.0278 41.872C23.8198 42.424 24.6118 42.7 25.4038 42.7C25.8598 42.7 26.3518 42.604 26.8798 42.412C27.4318 42.196 27.9478 41.848 28.4278 41.368C28.9078 40.864 29.2798 40.168 29.5438 39.28Z" fill="#F1D412"/>
</svg>
